<svg width="24" height="24" viewBox="0 0 24 24" fill="none" xmlns="http://www.w3.org/2000/svg">
<path fill-rule="evenodd" clip-rule="evenodd" d="M5 4.41396C5.00012 2.63228 7.15416 1.74011 8.41406 2.9999L19 13.5858C20.2597 14.8457 19.3676 16.9998 17.5859 16.9999H12.4141L8.41406 20.9999C7.15418 22.2596 5.00021 21.3674 5 19.5858V4.41396ZM7.70703 3.70693C7.07709 3.07711 6.00012 3.52319 6 4.41396V19.5858L6.0127 19.747C6.12515 20.4758 6.98901 20.834 7.58398 20.3983L7.70703 20.2929L11.707 16.2929C11.8945 16.1054 12.1489 15.9999 12.4141 15.9999H17.5859L17.7471 15.9872C18.476 15.8748 18.8341 15.0109 18.3984 14.4159L18.293 14.2929L7.70703 3.70693Z" fill="white"/>
</svg>
