<svg width="24" height="24" viewBox="0 0 24 24" fill="none" xmlns="http://www.w3.org/2000/svg">
<path fill-rule="evenodd" clip-rule="evenodd" d="M16.0001 2L17.5001 11C17.5001 11 18.0001 16 13.0001 16V21H17.0001V22H7.00006V21H11.0001V16C6.00662 15.9998 6.49885 11.0122 6.50006 11L8.00006 2H16.0001ZM7.49323 11.123L7.48835 11.2432C7.48521 11.3532 7.4849 11.5168 7.49811 11.7148C7.52495 12.117 7.60478 12.6314 7.80377 13.1289C8.00057 13.6207 8.30324 14.0728 8.76862 14.4053C9.22884 14.734 9.92371 15 11.0001 15H13.0001C14.0765 15 14.7712 14.734 15.2315 14.4053C15.697 14.0728 15.9995 13.6207 16.1964 13.1289C16.3954 12.6314 16.4752 12.1171 16.502 11.7148C16.5152 11.5168 16.5159 11.3532 16.5128 11.2432L16.5069 11.123L15.1534 3H8.84674L7.49323 11.123Z" fill="white"/>
</svg>
